<?xml version="1.0" standalone="no"?>
<!DOCTYPE svg PUBLIC "-//W3C//DTD SVG 20010904//EN"
 "http://www.w3.org/TR/2001/REC-SVG-20010904/DTD/svg10.dtd">
<svg version="1.0" xmlns="http://www.w3.org/2000/svg"
 width="200.000000pt" height="200.000000pt" viewBox="0 0 200.000000 200.000000"
 preserveAspectRatio="xMidYMid meet">

<g transform="translate(0.000000,200.000000) scale(0.100000,-0.100000)"
fill="#000000" stroke="none">
<path d="M855 1990 c-392 -42 -722 -335 -816 -727 -28 -113 -29 -301 -4 -418
58 -272 231 -502 478 -635 158 -85 295 -115 494 -107 247 9 436 91 616 266
452 438 353 1192 -197 1505 -101 58 -239 102 -358 115 -105 12 -109 12 -213 1z
m22 -635 c47 -21 88 -57 213 -184 173 -176 222 -208 360 -237 41 -8 80 -20 85
-25 25 -26 -152 -143 -280 -186 -72 -25 -95 -27 -225 -28 -138 0 -149 2 -233
31 -166 60 -298 163 -330 258 -21 62 -22 149 -1 209 28 84 118 164 209 188 52
14 140 3 202 -26z"/>
<path d="M692 1279 c-18 -12 -31 -23 -30 -25 2 -1 24 4 49 12 57 19 111 7 161
-34 l33 -27 -16 25 c-43 67 -133 90 -197 49z"/>
</g>
</svg>
