<svg 
  xmlns="http://www.w3.org/2000/svg" 
  xmlns:xlink="http://www.w3.org/1999/xlink" 
  viewBox="0 0 110 50"
  width="110" 
  height="50"
>
  <defs>
    <style>
      .cls-1 {
        fill: #00abaa;
      }
      .cls-2 {
        fill: #059;
      }
      .cls-3 {
        fill: #f59d15;
      }
      .cls-10, .cls-4 {
        fill: none;
      }
      .cls-4 {
        stroke: #059;
        stroke-miterlimit: 10;
        stroke-width: 0.37px;
      }
    </style>
  </defs>
  <g>
    <path class="cls-1" d="M0,20.52H10.28A52.4,52.4,0,0,0,29.6,39.83V50.11A47.43,47.43,0,0,1,0,20.52Z"/>
    <path class="cls-2" d="M29.6,20.52V39.83A52.4,52.4,0,0,1,10.28,20.52Z"/>
    <path class="cls-1" d="M29.6,20.52H10.28A52,52,0,0,1,4.85,7H16A13.57,13.57,0,0,1,29.6,20.52Z"/>
    <path class="cls-3" d="M43.16,34.08V45.26A51.6,51.6,0,0,1,29.6,39.83V20.52A13.56,13.56,0,0,1,43.16,34.08Z"/>
    <path class="cls-1" d="M29.49,7A18,18,0,0,0,43.16,20.62V7Z"/>
  </g>
  <path class="cls-2" d="M65.7,23.7V37.51H61.49V23.7H57V20.46H70.17V23.7ZM92.15,22a8.26,8.26,0,0,1,5-1.82c4.86,0,7.19,3.44,7.19,8.37,0,6.22-3.5,9.4-8.55,9.4s-7.72-3.18-7.72-10.51c0-6.09,1.38-10.29,3.5-12.25C94,13,94.75,13,97.6,12.29c1.75-.45,3.44-.71,4.09-1l1.55,3.5c-.84.52-2.4.84-5.51,1.49-3.57.72-5.19,2-5.58,5.71ZM96,34.53c2.79,0,3.83-2.27,3.83-5.51,0-2.92-.84-5.32-3.7-5.32a5.28,5.28,0,0,0-3.56,1.11,27.45,27.45,0,0,0-.13,4c0,3.5,1.1,5.77,3.56,5.77Zm-13.61,3-5.71-8v8H72.44v-17h4.28v7.46l5.06-7.46h4.67l-5.51,7.72,6.48,9.33Z"/>
</svg>