<svg xmlns="http://www.w3.org/2000/svg" width="130" height="33" viewBox="0 0 127 32" fill="none">
<path d="M109.311 16.9958C108.251 15.912 107.724 14.4622 107.724 12.6437C107.724 10.8253 108.251 9.3727 109.311 8.28887C110.37 7.20504 111.711 6.66313 113.337 6.66313C114.966 6.66313 116.299 7.20504 117.345 8.28887C118.389 9.3727 118.91 10.8225 118.91 12.6437C118.91 14.4622 118.387 15.9148 117.345 16.9958C116.299 18.0797 114.966 18.6216 113.337 18.6216C111.709 18.6216 110.366 18.0797 109.311 16.9958ZM107.133 2.95075C105.303 3.90049 103.87 5.21896 102.839 6.90337C101.808 8.58776 101.293 10.5012 101.293 12.6409C101.293 14.7807 101.808 16.6942 102.839 18.3785C103.87 20.063 105.3 21.3815 107.133 22.3311C108.965 23.2809 111.032 23.7558 113.337 23.7558C115.642 23.7558 117.705 23.2809 119.522 22.3311C121.34 21.3815 122.762 20.0657 123.793 18.3785C124.824 16.6942 125.339 14.7807 125.339 12.6409C125.339 10.5012 124.824 8.58776 123.793 6.90337C122.762 5.21617 121.337 3.90049 119.522 2.95075C117.705 2.001 115.642 1.52612 113.337 1.52612C111.032 1.52612 108.965 2.001 107.133 2.95075Z" fill="url(#paint0_linear_314_11593)"/>


<path d="M80.554 15.7919C79.4693 14.817 78.9256 13.5404 78.9256 11.9594C78.9256 10.3811 79.4693 9.10454 80.554 8.12686C81.6386 7.14918 83.0206 6.66313 84.7027 6.66313C86.3849 6.66313 87.7613 7.15198 88.8318 8.12686C89.9022 9.10454 90.4374 10.3811 90.4374 11.9594C90.4374 13.5376 89.9022 14.817 88.8318 15.7919C87.7613 16.7695 86.3849 17.2584 84.7027 17.2584C83.0206 17.2584 81.6386 16.7695 80.554 15.7919ZM77.9288 2.83062C76.2607 3.69936 74.9382 4.92287 73.9611 6.50391C72.9841 8.08216 72.4971 9.90065 72.4971 11.9594C72.4971 14.0208 72.9841 15.8394 73.9611 17.4176C74.9382 18.9959 76.2579 20.2193 77.9288 21.0909C79.5967 21.9596 81.4347 22.3954 83.4397 22.3954C86.3962 22.3954 88.7015 21.4987 90.3553 19.7082V20.63C90.3553 22.6105 89.8314 24.0881 88.7893 25.0659C87.7442 26.0408 86.1243 26.5296 83.9268 26.5296C82.5165 26.5296 81.1062 26.3089 79.6958 25.8675C78.294 25.429 77.1329 24.8368 76.2126 24.0938V30.0241C76.8894 30.3146 77.6059 30.5717 78.3931 30.7839C80.2906 31.2923 82.2984 31.5465 84.4139 31.5465C88.4268 31.5465 91.4795 30.5828 93.5667 28.6582C95.6567 26.7307 96.6988 23.7893 96.6988 19.8311V1.84736H90.6838V4.61559C89.0271 2.55688 86.6143 1.52612 83.4425 1.52612C81.4347 1.52612 79.5967 1.96189 77.9288 2.83062Z" fill="url(#paint3_linear_314_11593)"/>
<path d="M27.2066 1.28589H22.7633V7.057H20.5146V11.4398H22.7633V22.1356H27.2066V11.4398H29.3731V7.057H27.2066V1.28589Z" fill="#58595B"/>
<path d="M37.8603 9.01566V7.02119H33.6152V22.1389H38.0585V14.9991C38.0585 13.594 38.4182 12.5408 39.1404 11.8369C39.8625 11.133 40.8593 10.7839 42.1309 10.7839C42.3008 10.7839 42.635 10.8034 43.1277 10.8397V6.79492C41.9497 6.79492 40.9104 6.98208 40.0097 7.3564C39.1092 7.73071 38.3928 8.28379 37.8603 9.01566Z" fill="#58595B"/>
<path d="M51.9317 1.28613H47.4883V22.1358H51.9317V1.28613Z" fill="#58595B"/>
<path d="M61.569 10.6995L64.3047 8.33907C65.177 7.59045 65.7717 6.94797 66.086 6.41444C66.3975 5.8809 66.5561 5.31385 66.5561 4.71606C66.5561 3.66576 66.1143 2.81378 65.2308 2.15734C64.3472 1.5009 63.1351 1.17407 61.5974 1.17407C60.3627 1.17407 59.3092 1.38078 58.4341 1.79141C57.559 2.20483 56.885 2.76629 56.4121 3.4786L58.6918 4.82781C58.958 4.45349 59.3233 4.1574 59.7877 3.9423C60.2522 3.72721 60.7704 3.61828 61.3397 3.61828C62.0221 3.61828 62.5376 3.74118 62.8775 3.9842C63.2201 4.22723 63.39 4.54567 63.39 4.93954C63.39 5.22166 63.2908 5.51497 63.0898 5.82504C62.8888 6.1351 62.5234 6.5122 61.9939 6.96194L57.0663 11.1771V13.0598H67.0092V10.6995H61.569Z" fill="#58595B"/>
<path d="M10.8265 2.12964C8.77619 2.12964 6.92693 2.56541 5.2844 3.43694C3.64188 4.30847 2.35052 5.51521 1.41031 7.06274C0.470102 8.60747 0 10.3533 0 12.3032C0 14.2529 0.470102 15.9987 1.41031 17.5435C2.35052 19.0882 3.64188 20.2978 5.2844 21.1692C6.92693 22.0408 8.76486 22.4766 10.7982 22.4766C12.5257 22.4766 14.0917 22.1776 15.4993 21.5771C15.6352 21.5184 15.7597 21.4458 15.89 21.3816V16.4513C14.5732 17.8759 12.9646 18.5965 11.053 18.5965C9.81835 18.5965 8.71672 18.3284 7.74819 17.7977C6.77967 17.2641 6.02354 16.5183 5.48264 15.5629C4.94174 14.6077 4.66987 13.521 4.66987 12.3032C4.66987 11.0852 4.94174 9.99857 5.48264 9.04324C6.02354 8.0879 6.77967 7.34486 7.74819 6.80854C8.71672 6.275 9.81835 6.00684 11.053 6.00684C12.9618 6.00684 14.5704 6.71915 15.89 8.12701V3.21627C15.7626 3.15481 15.6437 3.08497 15.5134 3.02911C14.1172 2.42853 12.554 2.12964 10.8265 2.12964Z" fill="#58595B"/>
<defs>
<linearGradient id="paint0_linear_314_11593" x1="72.4978" y1="6.76907" x2="135" y2="6.69364" gradientUnits="userSpaceOnUse">
<stop stop-color="#5CBA99"/>
<stop offset="1" stop-color="#31B7BC"/>
</linearGradient>
<linearGradient id="paint1_linear_314_11593" x1="72.4976" y1="6.76899" x2="135" y2="6.69355" gradientUnits="userSpaceOnUse">
<stop stop-color="#5CBA99"/>
<stop offset="1" stop-color="#31B7BC"/>
</linearGradient>
<linearGradient id="paint2_linear_314_11593" x1="72.4974" y1="6.76895" x2="135" y2="6.69352" gradientUnits="userSpaceOnUse">
<stop stop-color="#5CBA99"/>
<stop offset="1" stop-color="#31B7BC"/>
</linearGradient>
<linearGradient id="paint3_linear_314_11593" x1="72.4971" y1="6.76907" x2="135" y2="6.69364" gradientUnits="userSpaceOnUse">
<stop stop-color="#5CBA99"/>
<stop offset="1" stop-color="#31B7BC"/>
</linearGradient>
</defs>
<script xmlns=""/></svg>