<svg id="Слой_1" data-name="Слой 1" xmlns="http://www.w3.org/2000/svg" xmlns:xlink="http://www.w3.org/1999/xlink" viewBox="0 0 173.37 56.69">
                        <defs>
                            <style>
                                .cls-1 {
                                    fill: #fff;
                                }

                                .cls-2 {
                                    fill: url(#Безымянный_градиент_35);
                                }

                                .cls-3 {
                                    fill: none;
                                }

                                .cls-4 {
                                    fill: url(#Безымянный_градиент_35-2);
                                }
                            </style>
                            <linearGradient id="Безымянный_градиент_35" data-name="Безымянный градиент 35" x1="138.46" y1="41.19" x2="138.46" y2="-27.29" gradientUnits="userSpaceOnUse">
                                <stop offset="0" stop-color="#5eba9b"></stop>
                                <stop offset="0.85" stop-color="#28b5be"></stop>
                            </linearGradient>
                            <linearGradient id="Безымянный_градиент_35-2" x1="108.92" y1="41.19" x2="108.92" y2="-27.29" xlink:href="#Безымянный_градиент_35"></linearGradient>
                        </defs>
                        <g>
                            <g>
                                <g>
                                    <polygon class="cls-1 ctrl" points="50.57 6.76 45.99 6.76 45.99 12.79 43.67 12.79 43.67 17.37 45.99 17.37 45.99 28.54 50.57 28.54 50.57 17.37 52.8 17.37 52.8 12.79 50.57 12.79 50.57 6.76"></polygon>
                                    <path class="cls-1 ctrl" d="M61.54,14.83V12.75H57.17V28.54h4.58V21.08a4.45,4.45,0,0,1,1.11-3.3,4.22,4.22,0,0,1,3.08-1.1c.18,0,.52,0,1,.06V12.51a8.24,8.24,0,0,0-3.21.59A5.12,5.12,0,0,0,61.54,14.83Z"></path>
                                    <rect class="cls-1 ctrl" x="71.46" y="6.76" width="4.58" height="21.78"></rect>
                                    <path class="cls-1 ctrl" d="M86,16.59l2.81-2.46a9.4,9.4,0,0,0,1.84-2,3.52,3.52,0,0,0,.48-1.78,3.19,3.19,0,0,0-1.36-2.67,6.13,6.13,0,0,0-3.74-1,7.49,7.49,0,0,0-3.26.65,5.05,5.05,0,0,0-2.09,1.76L83,10.46a2.89,2.89,0,0,1,1.13-.93,3.78,3.78,0,0,1,1.6-.33,2.69,2.69,0,0,1,1.59.38,1.16,1.16,0,0,1,.52,1,1.75,1.75,0,0,1-.3.92,6.47,6.47,0,0,1-1.13,1.19l-5.08,4.4v2H91.57V16.59Z"></path>
                                    <path class="cls-1 ctrl" d="M33.69,7.64A11.87,11.87,0,0,0,28,9a10.22,10.22,0,0,0-4,3.78,10.43,10.43,0,0,0-1.45,5.47A10.44,10.44,0,0,0,24,23.74a10.22,10.22,0,0,0,4,3.78,11.81,11.81,0,0,0,5.68,1.37A12,12,0,0,0,38.5,28l.41-.2V22.6a6.49,6.49,0,0,1-5,2.24A6.84,6.84,0,0,1,30.52,24a5.93,5.93,0,0,1-2.33-2.33,6.84,6.84,0,0,1-.84-3.41,6.83,6.83,0,0,1,.84-3.4,5.93,5.93,0,0,1,2.33-2.33,6.84,6.84,0,0,1,3.41-.84,6.53,6.53,0,0,1,5,2.21V8.78l-.39-.2A11.93,11.93,0,0,0,33.69,7.64Z"></path>
                                </g>
                                <path class="cls-2" d="M132.1,29.16A11,11,0,0,1,127.69,25a11.27,11.27,0,0,1-1.59-6,11.26,11.26,0,0,1,1.59-6,11,11,0,0,1,4.41-4.13,13.53,13.53,0,0,1,6.39-1.48,13.38,13.38,0,0,1,6.36,1.48,11.06,11.06,0,0,1,4.39,4.13,11.35,11.35,0,0,1,1.59,6,11.36,11.36,0,0,1-1.59,6,11,11,0,0,1-4.39,4.12,13.39,13.39,0,0,1-6.36,1.49A13.54,13.54,0,0,1,132.1,29.16Zm10.51-5.57a6.33,6.33,0,0,0,1.61-4.54,6.35,6.35,0,0,0-1.61-4.54,5.44,5.44,0,0,0-4.12-1.69,5.51,5.51,0,0,0-4.15,1.69,6.27,6.27,0,0,0-1.63,4.54,6.25,6.25,0,0,0,1.63,4.54,5.52,5.52,0,0,0,4.15,1.7A5.45,5.45,0,0,0,142.61,23.59Z"></path>
                                <g>
                                    <path class="cls-3" d="M109,12.82a6.1,6.1,0,0,0-4.27,1.52,5.15,5.15,0,0,0-1.68,4,5.15,5.15,0,0,0,1.68,4A6.06,6.06,0,0,0,109,23.87a6,6,0,0,0,4.24-1.53,5.17,5.17,0,0,0,1.66-4,5.17,5.17,0,0,0-1.66-4A6,6,0,0,0,109,12.82Z"></path>
                                    <path class="cls-4" d="M115.18,7.79v2.89c-1.7-2.15-4.19-3.22-7.45-3.22a11.88,11.88,0,0,0-5.67,1.36A10.31,10.31,0,0,0,98,12.65a10.66,10.66,0,0,0-1.51,5.69A10.63,10.63,0,0,0,98,24a10.24,10.24,0,0,0,4.08,3.83,11.88,11.88,0,0,0,5.67,1.36,9.12,9.12,0,0,0,7.11-2.8v1A6.07,6.07,0,0,1,113.23,32q-1.61,1.53-5,1.53a14,14,0,0,1-4.35-.7A10.48,10.48,0,0,1,100.29,31v6.19a17,17,0,0,0,2.25.79,23.54,23.54,0,0,0,6.19.8q6.19,0,9.42-3t3.22-9.21V7.79Zm-1.91,14.55A6,6,0,0,1,109,23.87a6.06,6.06,0,0,1-4.27-1.53,5.15,5.15,0,0,1-1.68-4,5.15,5.15,0,0,1,1.68-4A6.1,6.1,0,0,1,109,12.82a6,6,0,0,1,4.24,1.52,5.17,5.17,0,0,1,1.66,4A5.17,5.17,0,0,1,113.27,22.34Z"></path>
                                </g>
                            </g>
                            <g>
                                <path class="cls-1 ctrl" d="M28.05,44.79v.65H23.77V50H23V44.79Z"></path>
                                <path class="cls-1 ctrl" d="M34.88,44.79c1.26,0,1.83.62,1.83,1.63s-.57,1.66-1.83,1.66H31.19V50h-.82V44.79Zm1,1.58c0-.6-.32-1-1.09-1H31.19v2.05H34.8c.78,0,1.09-.35,1.09-.94Z"></path>
                                <path class="cls-1 ctrl" d="M39.4,44.79l2.68,3.11,2.43-3.11h.84l-4,5.18h-.85l1.17-1.5-3.2-3.68Z"></path>
                                <path class="cls-1 ctrl" d="M53.88,44.79V50h-.81V45.44H48.38V50h-.81V44.79Z"></path>
                                <path class="cls-1 ctrl" d="M63.11,44.79V50H62.3V45.44H57.62V50H56.8V44.79Z"></path>
                                <path class="cls-1 ctrl" d="M69.57,44.79,72.77,50h-.86L71,48.44h-3.9L66.13,50h-.81l3.21-5.18Zm-2.12,3.05H70.6L69,45.29Z"></path>
                                <path class="cls-1 ctrl" d="M84.76,44.79l-3.43,2.48L84.86,50H83.67l-3-2.34H79.09V50h-.82V44.79h.82V47H80.6l3-2.2Z"></path>
                                <path class="cls-1 ctrl" d="M90,44.71c2.57,0,3.93.73,3.93,2.68S92.57,50.05,90,50.05s-3.93-.75-3.93-2.66S87.43,44.71,90,44.71Zm3.12,2.48c0-1.3-1.05-1.85-3.12-1.85s-3.12.54-3.12,1.85v.37c0,1.3,1.05,1.86,3.12,1.86s3.12-.56,3.12-1.86Z"></path>
                                <path class="cls-1 ctrl" d="M97.28,45.44V50h-.74V44.79h1.21l2.5,4.55,2.51-4.55H104V50h-.81V45.44L100.67,50h-.9Z"></path>
                                <path class="cls-1 ctrl" d="M113.21,44.79V50h-.81V45.44h-4.68V50h-.82V44.79Z"></path>
                                <path class="cls-1 ctrl" d="M119.67,44.79l3.2,5.18H122l-.94-1.53h-3.9L116.23,50h-.81l3.21-5.18Zm-2.13,3.05h3.15l-1.57-2.55Z"></path>
                                <path class="cls-1 ctrl" d="M125.89,44.79V47h4.81V44.79h.81V50h-.81V47.6h-4.81V50h-.82V44.79Z"></path>
                                <path class="cls-1 ctrl" d="M135.31,50h-.87V44.79h.81v4.37l4.85-4.37H141V50h-.81V45.59Z"></path>
                                <path class="cls-1 ctrl" d="M144.76,50h-.87V44.79h.81v4.37l4.85-4.37h.86V50h-.81V45.59Zm1.38-6.78c0,.5.34.65,1,.65s1-.15,1-.65h.67c0,.75-.54,1.14-1.69,1.14s-1.66-.39-1.7-1.14Z"></path>
                            </g>
                        </g>
                    </svg>