<?xml version="1.0" encoding="UTF-8"?> <svg xmlns="http://www.w3.org/2000/svg" width="80" height="80" viewBox="0 0 80 80" fill="none"><rect width="80" height="80" fill="#35B3AA"></rect><rect width="80" height="80" fill="white" fill-opacity="0.9"></rect><g clip-path="url(#clip0)"><path d="M16 33.9092H26.5627C31.3051 42.1697 38.1509 49.0267 46.4036 53.7828V64.3455C39.3451 61.9362 32.9336 57.9393 27.6626 52.6627C22.3916 47.386 18.4017 40.9702 16 33.9092H16Z" fill="#35B3AA"></path><path d="M46.4034 33.9092V53.7828C38.1507 49.0267 31.3049 42.1697 26.5625 33.9092H46.4034Z" fill="#00539B"></path><path d="M46.4033 33.9092H26.5624C24.056 29.5591 22.1774 24.8763 20.9824 20.0001H32.4369C34.2683 19.9926 36.0832 20.3468 37.7773 21.0424C39.4714 21.738 41.0115 22.7614 42.3092 24.0537C43.6068 25.346 44.6365 26.8819 45.339 28.5731C46.0416 30.2644 46.4033 32.0778 46.4033 33.9092V33.9092Z" fill="#35B3AA"></path><path d="M60.3456 47.8755V59.33C55.4695 58.1385 50.7867 56.2626 46.4365 53.7582V33.9092C48.2679 33.9092 50.0813 34.2708 51.7725 34.9734C53.4638 35.676 54.9997 36.7056 56.292 38.0033C57.5843 39.3009 58.6077 40.841 59.3033 42.5352C59.9989 44.2293 60.3531 46.0441 60.3456 47.8755Z" fill="#F39A00"></path><path d="M46.2725 20C47.0354 23.4393 48.7654 26.5889 51.2587 29.0778C53.7519 31.5667 56.9045 33.2912 60.3451 34.0481V20H46.2725Z" fill="#35B3AA"></path></g><defs><clipPath id="clip0"><rect x="16" y="20" width="44.9999" height="45" fill="white"></rect></clipPath></defs></svg> 